{"title":"New Moon 2009 DVD9rip English Klam","uid":6710198,"size":1710427000,"categoryP":"video","categoryS":"movies","magnet":"?xt=urn:btih:60aa77ecf70a23d7c40ee87dae76a7cee4c1d895&amp;dn=New+Moon+2009+DVD9rip+English+Klam&amp;tr=udp%3A%2F%2Ftracker.openbittorrent.com%3A80&amp;tr=udp%3A%2F%2Fopen.demonii.com%3A1337&amp;tr=udp%3A%2F%2Ftracker.coppersurfer.tk%3A6969&amp;tr=udp%3A%2F%2Fexodus.desync.com%3A6969","seeders":1,"leechers":0,"uploader":"Klambake","files":-1,"time":1317323010,"description":"With: Kristen Stewart, Robert Pattinson en Taylor Lautner\n\nNadat Bella herstelt van een vampieraanval, die haar bijna van het leven beroofde, viert ze haar verjaardag bij Edward en zijn familie. Een ongelukje zorgt er echter voor dat Bella begint te bloeden, iets wat voor de familie van Edward onverdraaglijk is, aangezien hun dorst naar het bloed van Bella iets is wat er altijd zal blijven. Edward en zijn familie besluiten Bella hierdoor alleen te laten in deze periode, iets wat beter voor iedereen lijkt te zijn. De eerst diepbedroefde Bella vindt troost bij Jacob Black, waar ze een vriendschap mee opbouwt. Het lijkt allemaal weer beter te gaan, maar Bella weet niet dat er hierdoor alleen maar nieuwe gevaren op de loer komen te liggen...\n\nEdward leaves Bella after an attack that nearly claimed her life, and in her depression she falls into yet another paranormal relationship- this time with werewolf Jacob Black. \n\n------------------ Dutch Friends ------------------\nYou can find my Friends at: http://www.Film-Test.nl \n------ They got my dutch subs ----- and more ------\n\nGeneral:\n\nComplete name                    : New Moon\\New Monn.avi\nFormat                           : AVI\nFormat/Info                      : Audio Video Interleave\nFile size                        : 1.59 GiB\nDuration                         : 2h 5mn\nOverall bit rate                 : 1 821 Kbps\n\nVideo:\n\nFormat                           : MPEG-4 Visual\nFormat profile                   : Simple@L3\nFormat settings, BVOP            : No\nFormat settings, QPel            : No\nFormat settings, GMC             : No warppoints\nFormat settings, Matrix          : Default (H.263)\nCodec ID                         : XVID\nCodec ID/Hint                    : XviD\nDuration                         : 2h 5mn\nBit rate                         : 1 362 Kbps\nWidth                            : 720 pixels\nHeight                           : 304 pixels\nDisplay aspect ratio             : 2.35:1\nFrame rate                       : 25.000 fps\nColor space                      : YUV\nChroma subsampling               : 4:2:0\nBit depth                        : 8 bits\nScan type                        : Progressive\nBits/(Pixel*Frame)               : 0.249\nStream size                      : 1.19 GiB (75%)\nWriting library                  : XviD 1.1.2 (UTC 2006-11-01)\n\nAudio:\n\nFormat                           : AC-3\nFormat/Info                      : Audio Coding 3\nMode extension                   : CM (complete main)\nCodec ID                         : 2000\nDuration                         : 2h 5mn\nBit rate mode                    : Constant\nBit rate                         : 448 Kbps\nChannel(s)                       : 6 channels\nChannel positions                : Front: L C R, Side: L R, LFE\nSampling rate                    : 48.0 KHz\nBit depth                        : 16 bits\nStream size                      : 401 MiB (25%)\nAlignment                        : Aligned on interleaves\nInterleave, duration             : 32 ms (0.80 video frame)\n\n","torrent":{"xt":"urn:btih:60aa77ecf70a23d7c40ee87dae76a7cee4c1d895","amp;dn":"New+Moon+2009+DVD9rip+English+Klam","amp;tr":["udp%3A%2F%2Ftracker.openbittorrent.com%3A80","udp%3A%2F%2Fopen.demonii.com%3A1337","udp%3A%2F%2Ftracker.coppersurfer.tk%3A6969","udp%3A%2F%2Fexodus.desync.com%3A6969"],"infoHash":"60aa77ecf70a23d7c40ee87dae76a7cee4c1d895","infoHashBuffer":{"type":"Buffer","data":[96,170,119,236,247,10,35,215,196,14,232,125,174,118,167,206,228,193,216,149]},"announce":[],"urlList":[]}}